<?xml version="1.0" standalone="no"?>
<!DOCTYPE svg PUBLIC "-//W3C//DTD SVG 20010904//EN"
 "http://www.w3.org/TR/2001/REC-SVG-20010904/DTD/svg10.dtd">
<svg version="1.0" xmlns="http://www.w3.org/2000/svg"
 width="2250.000000pt" height="2250.000000pt" viewBox="0 0 2250.000000 2250.000000"
 preserveAspectRatio="xMidYMid meet">

<g transform="translate(0.000000,2250.000000) scale(0.100000,-0.100000)"
fill="#000000" stroke="none">
<path d="M3315 16791 c-75 -19 -152 -78 -186 -143 -10 -20 -382 -1298 -825
-2840 -880 -3057 -833 -2877 -787 -2979 27 -60 83 -115 147 -145 l51 -24 3396
0 c3045 0 3400 2 3441 16 52 17 117 69 146 117 30 48 322 1071 322 1126 0 131
-81 237 -209 275 -49 14 -224 16 -1770 16 l-1716 0 -50 24 c-94 43 -165 151
-165 250 0 66 78 329 113 383 33 49 99 97 157 113 22 6 764 10 2056 10 2291 0
2087 8 2179 -84 64 -63 89 -130 83 -214 -3 -35 -385 -1367 -961 -3353 -748
-2577 -957 -3308 -957 -3351 0 -114 57 -205 158 -255 l57 -28 1334 -3 c1166
-2 1341 0 1387 13 57 16 144 87 170 136 8 16 440 1580 959 3476 520 1897 953
3466 963 3488 22 53 86 122 136 147 57 29 141 34 207 13 105 -35 189 -151 189
-260 0 -25 -94 -363 -230 -832 -151 -521 -230 -806 -230 -836 0 -76 34 -149
94 -204 29 -27 70 -55 92 -63 33 -12 260 -15 1509 -20 1077 -4 1477 -8 1495
-17 102 -47 170 -149 170 -256 0 -79 -71 -336 -108 -391 -34 -50 -101 -102
-150 -116 -25 -6 -561 -10 -1621 -10 -1788 0 -1659 6 -1750 -76 -27 -24 -56
-60 -65 -79 -10 -20 -83 -260 -163 -533 -132 -449 -146 -505 -147 -577 0 -68
3 -87 26 -130 31 -59 67 -95 128 -127 l45 -23 3124 -3 c2099 -1 3136 1 3161 8
59 16 131 70 163 121 42 69 967 3413 967 3496 0 88 -43 169 -120 226 -80 59
-22 57 -1585 57 -1369 0 -1432 1 -1471 19 -93 42 -158 132 -170 233 -6 54 16
147 66 280 24 64 79 126 142 160 l43 23 1625 5 1625 5 50 27 c50 26 89 62 118
108 9 14 80 255 157 535 131 469 142 515 137 575 -2 38 -13 82 -25 106 -24 48
-90 109 -141 132 -33 16 -563 17 -7166 22 l-7130 5 -51 23 c-102 46 -168 147
-167 257 0 71 50 246 89 312 14 24 44 57 66 74 88 63 -40 59 2012 59 1194 0
1884 4 1906 10 56 15 122 62 154 109 23 33 63 158 178 553 81 281 148 528 148
548 0 78 -28 142 -90 202 -100 98 288 88 -3534 87 -1854 -1 -3384 -4 -3401 -8z"/>
<path d="M11065 16658 c-36 -99 -391 -1305 -386 -1311 4 -4 263 -6 575 -5
l569 3 43 145 c24 80 44 151 44 158 0 9 -87 12 -400 12 l-400 0 6 28 c4 15 17
56 28 92 l21 65 395 3 395 2 46 155 46 155 -394 0 c-314 0 -394 3 -390 13 2 7
15 49 28 95 l24 82 402 0 402 0 26 88 c15 48 35 116 46 151 10 35 19 67 19 72
0 5 -242 9 -570 9 -447 0 -572 -3 -575 -12z"/>
<path d="M12670 16660 c-82 -11 -153 -46 -204 -100 -60 -64 -76 -99 -137 -296
-43 -138 -52 -183 -53 -246 -1 -68 2 -79 24 -103 56 -60 55 -60 428 -63 188
-2 342 -4 342 -5 0 -1 -13 -42 -28 -92 l-28 -90 -430 -3 -430 -2 -45 -153
c-26 -83 -43 -156 -39 -160 4 -5 232 -7 506 -5 498 3 499 3 558 27 124 49 173
123 246 366 72 239 78 293 42 356 -38 67 -112 79 -489 79 -156 0 -283 3 -283
7 0 4 11 44 25 90 l26 83 427 2 427 3 46 150 c26 83 45 153 42 158 -5 9 -899
7 -973 -3z"/>
<path d="M13894 16658 c-11 -14 -394 -1285 -394 -1305 0 -16 325 -19 335 -3 3
5 32 96 64 202 l57 193 345 6 c393 6 415 10 500 86 66 60 96 127 175 388 58
195 65 227 62 287 -3 58 -8 72 -33 98 -16 16 -45 35 -64 42 -55 18 -1034 24
-1047 6z m761 -355 c-8 -27 -27 -90 -42 -140 l-28 -93 -262 0 c-182 0 -263 3
-263 11 0 9 61 219 75 257 3 9 66 12 269 12 l265 0 -14 -47z"/>
<path d="M15545 16659 c-117 -18 -199 -78 -253 -185 -12 -23 -78 -230 -148
-460 -116 -384 -127 -426 -128 -501 -1 -76 1 -84 27 -111 51 -53 68 -55 505
-59 420 -4 508 1 587 36 50 22 105 75 139 133 35 60 286 897 293 973 6 81 -15
122 -82 155 l-50 25 -415 2 c-228 1 -442 -3 -475 -8z m645 -320 c0 -8 -153
-527 -191 -646 l-11 -33 -302 0 -303 0 79 263 c43 144 90 299 104 345 l25 82
299 0 c203 0 300 -3 300 -11z"/>
<path d="M16856 16588 c-158 -523 -366 -1224 -366 -1235 0 -11 31 -13 167 -11
l168 3 65 215 65 215 303 3 c166 1 302 1 302 -1 0 -2 -29 -100 -64 -216 -44
-147 -60 -214 -52 -217 7 -2 84 -3 171 -2 l160 3 63 205 c66 218 72 264 37
316 -20 31 -87 63 -135 64 -28 1 -19 5 40 21 161 42 204 93 274 324 77 253 72
314 -29 365 l-50 25 -547 3 -546 3 -26 -83z m871 -255 c-2 -10 -19 -69 -38
-130 l-33 -113 -304 0 c-239 0 -303 3 -300 13 3 6 20 62 38 122 17 61 34 113
37 118 2 4 139 7 305 7 281 0 300 -1 295 -17z"/>
<path d="M18363 16658 c-9 -12 -93 -285 -93 -301 0 -4 104 -7 230 -7 127 0
230 -3 230 -7 -1 -5 -68 -228 -149 -498 -82 -269 -145 -493 -142 -498 4 -4 81
-6 171 -5 l164 3 151 500 151 500 235 3 236 2 46 154 c26 85 47 157 47 160 0
3 -285 6 -634 6 -495 0 -636 -3 -643 -12z"/>
<path d="M20040 16663 c-53 -6 -131 -33 -172 -61 -77 -50 -109 -112 -179 -338
-80 -260 -77 -338 15 -387 40 -21 53 -22 382 -25 l342 -3 -28 -92 -27 -92
-430 -3 -430 -2 -46 -154 c-26 -85 -47 -157 -47 -161 0 -3 228 -5 508 -3 498
3 508 4 563 26 75 30 129 78 166 149 18 32 57 141 88 243 50 162 56 193 53
252 -3 58 -8 71 -33 98 -16 16 -45 35 -64 42 -23 7 -158 13 -363 15 -181 3
-328 8 -328 12 0 4 11 43 24 87 l23 79 429 5 428 5 43 140 c23 77 43 148 43
158 0 16 -28 17 -462 15 -255 0 -479 -3 -498 -5z"/>
</g>
</svg>
